<svg xmlns="http://www.w3.org/2000/svg" xmlns:v="https://svgstorm.com"
viewBox = "0 0 320 320"
width="320"
height="320">
<g fill="None" fill-opacity="0.0" stroke="#FEFEFE" stroke-opacity="1.00" stroke-width="0.3"><path d="
M 0.00 136.00 
C 1.04 127.30 6.09 118.06 4.00 109.00
C 16.24 92.20 21.16 67.76 40.00 54.00
C 40.24 53.68 40.00 53.00 40.00 53.00
C 43.39 46.07 53.20 39.43 59.00 35.00
C 59.32 34.76 60.00 35.00 60.00 35.00
C 62.75 31.07 69.50 28.94 68.00 24.00
C 76.11 24.47 81.32 17.63 89.03 15.03 C 96.73 12.42 105.36 6.35 114.00 6.00
C 114.44 5.84 115.00 6.00 115.00 6.00
C 119.49 1.61 126.98 3.08 132.00 0.00
L 0.00 0.00
L 0.00 136.00 Z"/>
</g>
<g fill="None" fill-opacity="0.0" stroke="#C6F6FC" stroke-opacity="1.00" stroke-width="0.3"><path d="
M 115.00 6.00 
C 124.96 6.67 136.21 -0.37 146.00 0.00
L 132.00 0.00
C 126.98 3.08 119.49 1.61 115.00 6.00 Z"/>
</g>
<g fill="None" fill-opacity="0.0" stroke="#06ACE7" stroke-opacity="1.00" stroke-width="0.3"><path d="
M 115.00 6.00 
C 115.00 6.00 114.44 5.84 114.00 6.00
C 110.48 10.60 100.10 10.47 94.78 13.78 C 89.46 17.08 82.00 20.24 76.30 23.30 C 70.61 26.37 65.76 32.18 60.00 35.00
C 60.00 35.00 59.32 34.76 59.00 35.00
C 54.81 40.99 46.09 48.74 40.00 53.00
C 40.00 53.00 40.24 53.68 40.00 54.00
C 19.04 81.44 2.39 111.41 0.00 146.00
L 0.00 174.00
C 5.19 223.04 34.06 273.95 79.00 299.00
C 84.33 300.71 88.83 303.90 94.00 306.00
C 97.77 307.53 101.57 309.40 105.00 311.00
C 108.67 312.72 112.06 313.22 116.00 314.00
C 117.94 314.07 121.31 312.89 124.00 314.00
C 104.81 291.62 79.51 269.83 62.00 250.00
C 56.10 244.82 55.42 241.01 57.99 232.99 C 60.56 224.97 58.85 217.81 61.00 210.00 C 63.15 202.19 63.74 197.63 58.25 191.75 C 52.76 185.88 58.44 176.52 62.25 172.25 C 66.06 167.98 65.88 158.25 68.00 152.00
C 65.87 154.11 55.96 142.82 53.25 139.75 C 50.54 136.68 40.06 127.72 39.00 126.00
C 30.67 112.46 58.71 110.41 69.02 106.02 C 79.34 101.64 97.62 96.35 109.69 91.69 C 121.76 87.04 137.15 83.20 150.07 78.07 C 163.00 72.95 178.56 80.74 191.69 85.31 C 204.83 89.87 218.69 94.27 232.02 98.98 C 245.36 103.68 259.62 108.12 273.00 113.00
C 283.32 114.32 288.54 124.34 296.75 132.25 C 304.96 140.16 311.57 147.72 320.00 155.00
L 320.00 146.00
C 318.11 129.71 313.28 111.12 307.03 95.98 C 300.77 80.83 292.09 69.46 282.25 56.75 C 272.40 44.04 261.29 36.79 249.25 26.75 C 237.22 16.70 218.24 14.31 206.00 6.00
C 205.57 6.17 204.49 6.07 204.00 6.00
C 201.36 5.64 198.60 4.72 196.00 4.00
C 194.93 3.70 194.08 3.32 193.00 3.00
C 186.98 1.19 179.52 2.29 174.00 0.00
L 146.00 0.00
C 136.21 -0.37 124.96 6.67 115.00 6.00 Z"/>
</g>
<g fill="None" fill-opacity="0.0" stroke="#B8F7FC" stroke-opacity="1.00" stroke-width="0.3"><path d="
M 193.00 3.00 
C 190.18 1.47 186.88 0.94 184.00 0.00
L 174.00 0.00
C 179.52 2.29 186.98 1.19 193.00 3.00 Z"/>
</g>
<g fill="None" fill-opacity="0.0" stroke="#FEFEFE" stroke-opacity="1.00" stroke-width="0.3"><path d="
M 193.00 3.00 
C 194.08 3.32 194.93 3.70 196.00 4.00
C 199.90 4.08 200.39 3.09 204.00 6.00
C 204.49 6.07 205.57 6.17 206.00 6.00
C 213.03 3.15 222.94 12.44 229.90 14.10 C 236.86 15.76 244.61 23.27 251.68 26.32 C 258.75 29.37 263.70 37.84 269.75 42.25 C 275.80 46.65 281.55 55.82 288.00 56.00
C 286.04 61.34 294.26 69.38 298.92 77.08 C 303.58 84.78 307.22 94.41 310.99 103.01 C 314.77 111.61 317.44 121.43 320.00 131.00
L 320.00 0.00
L 184.00 0.00
C 186.88 0.94 190.18 1.47 193.00 3.00 Z"/>
</g>
<g fill="None" fill-opacity="0.0" stroke="#C7F6FD" stroke-opacity="1.00" stroke-width="0.3"><path d="
M 196.00 4.00 
C 198.60 4.72 201.36 5.64 204.00 6.00
C 200.39 3.09 199.90 4.08 196.00 4.00 Z"/>
</g>
<g fill="None" fill-opacity="0.0" stroke="#D1F9FD" stroke-opacity="1.00" stroke-width="0.3"><path d="
M 206.00 6.00 
C 218.24 14.31 237.22 16.70 249.25 26.75 C 261.29 36.79 272.40 44.04 282.25 56.75 C 292.09 69.46 300.77 80.83 307.03 95.98 C 313.28 111.12 318.11 129.71 320.00 146.00
L 320.00 131.00
C 317.44 121.43 314.77 111.61 310.99 103.01 C 307.22 94.41 303.58 84.78 298.92 77.08 C 294.26 69.38 286.04 61.34 288.00 56.00
C 281.55 55.82 275.80 46.65 269.75 42.25 C 263.70 37.84 258.75 29.37 251.68 26.32 C 244.61 23.27 236.86 15.76 229.90 14.10 C 222.94 12.44 213.03 3.15 206.00 6.00 Z"/>
</g>
<g fill="None" fill-opacity="0.0" stroke="#D0F9FE" stroke-opacity="1.00" stroke-width="0.3"><path d="
M 60.00 35.00 
C 65.76 32.18 70.61 26.37 76.30 23.30 C 82.00 20.24 89.46 17.08 94.78 13.78 C 100.10 10.47 110.48 10.60 114.00 6.00
C 105.36 6.35 96.73 12.42 89.03 15.03 C 81.32 17.63 76.11 24.47 68.00 24.00
C 69.50 28.94 62.75 31.07 60.00 35.00 Z"/>
</g>
<g fill="None" fill-opacity="0.0" stroke="#C6FCFD" stroke-opacity="1.00" stroke-width="0.3"><path d="
M 40.00 53.00 
C 46.09 48.74 54.81 40.99 59.00 35.00
C 53.20 39.43 43.39 46.07 40.00 53.00 Z"/>
</g>
<g fill="None" fill-opacity="0.0" stroke="#CBF7FC" stroke-opacity="1.00" stroke-width="0.3"><path d="
M 0.00 136.00 
L 0.00 146.00
C 2.39 111.41 19.04 81.44 40.00 54.00
C 21.16 67.76 16.24 92.20 4.00 109.00
C 6.09 118.06 1.04 127.30 0.00 136.00 Z"/>
</g>
<g fill="None" fill-opacity="0.0" stroke="#CEF6FC" stroke-opacity="1.00" stroke-width="0.3"><path d="
M 39.00 126.00 
C 41.42 128.05 51.71 130.93 55.00 131.00
C 49.29 125.41 39.20 128.04 38.00 119.00
C 51.01 113.30 65.69 108.09 79.08 104.08 C 92.46 100.06 105.90 92.48 120.00 92.00
C 123.74 87.11 133.54 84.97 140.68 82.68 C 147.82 80.38 156.84 76.01 164.67 77.33 C 172.50 78.65 177.18 83.82 185.01 84.99 C 192.83 86.16 199.59 90.95 207.23 92.77 C 214.87 94.60 222.52 97.47 230.07 99.93 C 237.63 102.38 244.65 104.96 250.67 107.33 C 256.69 109.70 265.82 110.66 269.00 116.00
C 273.50 113.74 276.33 117.61 281.00 117.00
C 281.15 129.19 265.95 128.35 256.77 132.77 C 247.59 137.19 234.41 138.74 224.98 142.98 C 215.54 147.21 205.14 150.09 195.78 153.78 C 186.41 157.46 177.45 156.87 170.00 163.00
C 178.76 160.16 187.25 158.18 196.02 155.02 C 204.80 151.87 213.05 149.03 222.07 146.07 C 231.09 143.12 237.65 140.16 247.22 137.22 C 256.80 134.29 262.62 131.49 273.22 128.22 C 283.82 124.96 285.79 117.66 273.00 113.00
C 259.62 108.12 245.36 103.68 232.02 98.98 C 218.69 94.27 204.83 89.87 191.69 85.31 C 178.56 80.74 163.00 72.95 150.07 78.07 C 137.15 83.20 121.76 87.04 109.69 91.69 C 97.62 96.35 79.34 101.64 69.02 106.02 C 58.71 110.41 30.67 112.46 39.00 126.00 Z"/>
</g>
<g fill="None" fill-opacity="0.0" stroke="#FEFEFE" stroke-opacity="1.00" stroke-width="0.3"><path d="
M 55.00 131.00 
C 55.50 131.01 56.00 131.00 56.00 131.00
C 62.44 130.51 68.50 136.04 75.00 136.00
C 75.11 138.23 74.21 141.07 72.00 142.00
C 71.24 143.78 70.53 145.15 70.00 147.00
C 66.65 158.79 66.54 167.99 60.08 178.08 C 53.61 188.16 69.32 197.85 63.07 209.07 C 56.82 220.29 62.02 234.93 59.00 247.00
C 65.35 249.28 73.38 250.09 80.00 248.00
C 80.38 247.78 81.00 248.00 81.00 248.00
C 87.63 240.50 76.92 231.25 79.22 222.78 C 81.53 214.30 70.90 202.16 77.26 194.26 C 83.62 186.36 83.10 180.73 77.00 172.00
C 76.60 171.80 76.00 172.00 76.00 172.00
C 72.41 168.53 75.61 156.22 77.33 152.33 C 79.04 148.44 83.25 139.46 89.00 141.00 C 94.76 142.55 100.59 145.40 106.03 146.97 C 111.47 148.54 117.21 151.97 123.02 152.98 C 128.84 153.98 134.21 158.34 140.22 158.78 C 146.23 159.22 152.15 164.62 157.00 166.00
C 162.29 166.60 165.73 164.38 170.00 163.00
C 177.45 156.87 186.41 157.46 195.78 153.78 C 205.14 150.09 215.54 147.21 224.98 142.98 C 234.41 138.74 247.59 137.19 256.77 132.77 C 265.95 128.35 281.15 129.19 281.00 117.00
C 276.33 117.61 273.50 113.74 269.00 116.00
C 265.82 110.66 256.69 109.70 250.67 107.33 C 244.65 104.96 237.63 102.38 230.07 99.93 C 222.52 97.47 214.87 94.60 207.23 92.77 C 199.59 90.95 192.83 86.16 185.01 84.99 C 177.18 83.82 172.50 78.65 164.67 77.33 C 156.84 76.01 147.82 80.38 140.68 82.68 C 133.54 84.97 123.74 87.11 120.00 92.00
C 105.90 92.48 92.46 100.06 79.08 104.08 C 65.69 108.09 51.01 113.30 38.00 119.00
C 39.20 128.04 49.29 125.41 55.00 131.00 Z"/>
</g>
<g fill="None" fill-opacity="0.0" stroke="#0495CA" stroke-opacity="1.00" stroke-width="0.3"><path d="
M 273.00 113.00 
C 285.79 117.66 283.82 124.96 273.22 128.22 C 262.62 131.49 256.80 134.29 247.22 137.22 C 237.65 140.16 231.09 143.12 222.07 146.07 C 213.05 149.03 204.80 151.87 196.02 155.02 C 187.25 158.18 178.76 160.16 170.00 163.00
C 165.73 164.38 162.29 166.60 157.00 166.00
C 145.61 164.71 134.62 156.68 123.32 154.68 C 112.03 152.67 101.12 144.81 89.93 143.07 C 78.73 141.34 75.21 163.32 76.00 172.00
C 76.00 172.00 76.60 171.80 77.00 172.00
C 86.48 176.64 86.30 191.35 77.00 196.00
C 78.61 204.36 80.55 214.51 81.00 223.00 C 81.45 231.49 87.12 241.48 81.00 248.00
C 81.00 248.00 80.38 247.78 80.00 248.00
C 76.64 252.38 66.86 251.73 62.00 250.00
C 79.51 269.83 104.81 291.62 124.00 314.00
C 121.31 312.89 117.94 314.07 116.00 314.00
C 119.68 314.72 123.44 315.74 127.00 317.00
C 131.80 318.01 137.10 318.67 142.00 319.00
C 144.54 319.17 148.28 318.10 150.00 320.00
L 174.00 320.00
C 179.83 318.78 186.77 318.02 193.00 317.00
C 193.49 316.92 194.00 317.00 194.00 317.00
C 199.78 313.84 210.19 311.11 217.00 310.00
C 217.49 309.92 218.00 310.00 218.00 310.00
C 226.88 302.88 240.69 300.38 249.75 292.75 C 258.80 285.11 267.94 279.19 276.25 270.25 C 284.55 261.31 291.83 251.98 298.00 242.00
C 298.83 239.93 299.99 237.98 301.00 236.00
C 310.98 216.47 317.67 195.53 320.00 174.00
L 320.00 155.00
C 311.57 147.72 304.96 140.16 296.75 132.25 C 288.54 124.34 283.32 114.32 273.00 113.00
M 156.00 173.00 
C 158.34 173.31 161.67 173.36 164.00 173.00
C 185.26 166.98 205.64 157.77 227.00 152.00
C 225.48 166.91 235.72 191.70 223.25 203.25 C 210.78 214.79 194.53 215.12 179.00 218.00
C 178.00 217.97 177.00 218.00 176.00 218.00
C 151.61 223.35 132.10 217.23 108.77 210.23 C 85.44 203.22 89.71 171.91 93.00 152.00
C 114.21 158.19 134.92 166.25 156.00 173.00 Z"/>
</g>
<g fill="None" fill-opacity="0.0" stroke="#1194C7" stroke-opacity="1.00" stroke-width="0.3"><path d="
M 68.00 152.00 
C 68.63 150.14 69.27 148.60 70.00 147.00
C 70.53 145.15 71.24 143.78 72.00 142.00
C 72.59 140.60 73.44 139.40 74.00 138.00
C 68.35 134.81 61.18 134.46 56.00 131.00
C 56.00 131.00 55.50 131.01 55.00 131.00
C 51.71 130.93 41.42 128.05 39.00 126.00
C 40.06 127.72 50.54 136.68 53.25 139.75 C 55.96 142.82 65.87 154.11 68.00 152.00 Z"/>
</g>
<g fill="None" fill-opacity="0.0" stroke="#BFEDF7" stroke-opacity="1.00" stroke-width="0.3"><path d="
M 72.00 142.00 
C 74.21 141.07 75.11 138.23 75.00 136.00
C 68.50 136.04 62.44 130.51 56.00 131.00
C 61.18 134.46 68.35 134.81 74.00 138.00
C 73.44 139.40 72.59 140.60 72.00 142.00 Z"/>
</g>
<g fill="None" fill-opacity="0.0" stroke="#CFF5FB" stroke-opacity="1.00" stroke-width="0.3"><path d="
M 76.00 172.00 
C 75.21 163.32 78.73 141.34 89.93 143.07 C 101.12 144.81 112.03 152.67 123.32 154.68 C 134.62 156.68 145.61 164.71 157.00 166.00
C 152.15 164.62 146.23 159.22 140.22 158.78 C 134.21 158.34 128.84 153.98 123.02 152.98 C 117.21 151.97 111.47 148.54 106.03 146.97 C 100.59 145.40 94.76 142.55 89.00 141.00 C 83.25 139.46 79.04 148.44 77.33 152.33 C 75.61 156.22 72.41 168.53 76.00 172.00 Z"/>
</g>
<g fill="None" fill-opacity="0.0" stroke="#CAF6FC" stroke-opacity="1.00" stroke-width="0.3"><path d="
M 68.00 152.00 
C 65.88 158.25 66.06 167.98 62.25 172.25 C 58.44 176.52 52.76 185.88 58.25 191.75 C 63.74 197.63 63.15 202.19 61.00 210.00 C 58.85 217.81 60.56 224.97 57.99 232.99 C 55.42 241.01 56.10 244.82 62.00 250.00
C 66.86 251.73 76.64 252.38 80.00 248.00
C 73.38 250.09 65.35 249.28 59.00 247.00
C 62.02 234.93 56.82 220.29 63.07 209.07 C 69.32 197.85 53.61 188.16 60.08 178.08 C 66.54 167.99 66.65 158.79 70.00 147.00
C 69.27 148.60 68.63 150.14 68.00 152.00 Z"/>
</g>
<g fill="None" fill-opacity="0.0" stroke="#CFF5FA" stroke-opacity="1.00" stroke-width="0.3"><path d="
M 176.00 218.00 
C 163.26 218.00 146.67 218.87 134.98 216.02 C 123.28 213.18 110.43 213.63 104.00 204.00
C 96.37 204.64 91.33 196.42 92.07 187.93 C 92.81 179.43 93.00 169.57 94.21 160.77 C 95.43 151.97 105.01 158.18 111.25 159.20 C 117.49 160.22 126.72 165.83 134.01 166.99 C 141.30 168.15 148.25 174.52 156.22 174.78 C 164.20 175.03 172.79 172.68 180.07 170.07 C 187.36 167.47 195.17 163.82 202.74 161.74 C 210.32 159.66 217.43 155.00 225.00 155.00
C 225.66 169.09 233.51 192.31 220.92 202.92 C 208.32 213.53 193.52 212.22 179.00 218.00
C 194.53 215.12 210.78 214.79 223.25 203.25 C 235.72 191.70 225.48 166.91 227.00 152.00
C 205.64 157.77 185.26 166.98 164.00 173.00
C 160.95 173.86 158.98 173.77 156.00 173.00
C 134.92 166.25 114.21 158.19 93.00 152.00
C 89.71 171.91 85.44 203.22 108.77 210.23 C 132.10 217.23 151.61 223.35 176.00 218.00 Z"/>
</g>
<g fill="None" fill-opacity="0.0" stroke="#FEFEFE" stroke-opacity="1.00" stroke-width="0.3"><path d="
M 176.00 218.00 
C 177.00 218.00 178.00 217.97 179.00 218.00
C 193.52 212.22 208.32 213.53 220.92 202.92 C 233.51 192.31 225.66 169.09 225.00 155.00
C 217.43 155.00 210.32 159.66 202.74 161.74 C 195.17 163.82 187.36 167.47 180.07 170.07 C 172.79 172.68 164.20 175.03 156.22 174.78 C 148.25 174.52 141.30 168.15 134.01 166.99 C 126.72 165.83 117.49 160.22 111.25 159.20 C 105.01 158.18 95.43 151.97 94.21 160.77 C 93.00 169.57 92.81 179.43 92.07 187.93 C 91.33 196.42 96.37 204.64 104.00 204.00
C 110.43 213.63 123.28 213.18 134.98 216.02 C 146.67 218.87 163.26 218.00 176.00 218.00 Z"/>
</g>
<g fill="None" fill-opacity="0.0" stroke="#CDF4FB" stroke-opacity="1.00" stroke-width="0.3"><path d="
M 81.00 248.00 
C 87.12 241.48 81.45 231.49 81.00 223.00 C 80.55 214.51 78.61 204.36 77.00 196.00
C 86.30 191.35 86.48 176.64 77.00 172.00
C 83.10 180.73 83.62 186.36 77.26 194.26 C 70.90 202.16 81.53 214.30 79.22 222.78 C 76.92 231.25 87.63 240.50 81.00 248.00 Z"/>
</g>
<g fill="None" fill-opacity="0.0" stroke="#67BBDA" stroke-opacity="1.00" stroke-width="0.3"><path d="
M 164.00 173.00 
C 161.67 173.36 158.34 173.31 156.00 173.00
C 158.98 173.77 160.95 173.86 164.00 173.00 Z"/>
</g>
<g fill="None" fill-opacity="0.0" stroke="#D0FAFD" stroke-opacity="1.00" stroke-width="0.3"><path d="
M 0.00 184.00 
C 4.37 206.48 12.87 235.65 27.75 253.25 C 42.64 270.85 56.60 291.82 79.00 299.00
C 34.06 273.95 5.19 223.04 0.00 174.00
L 0.00 184.00 Z"/>
</g>
<g fill="None" fill-opacity="0.0" stroke="#C6F2FA" stroke-opacity="1.00" stroke-width="0.3"><path d="
M 301.00 236.00 
C 304.25 231.17 307.72 223.58 312.00 221.00
C 313.63 209.59 318.35 196.19 320.00 184.00
L 320.00 174.00
C 317.67 195.53 310.98 216.47 301.00 236.00 Z"/>
</g>
<g fill="None" fill-opacity="0.0" stroke="#FDFEFE" stroke-opacity="1.00" stroke-width="0.3"><path d="
M 0.00 320.00 
L 136.00 320.00
C 133.41 319.03 129.59 317.92 127.00 317.00
C 123.44 315.74 119.68 314.72 116.00 314.00
C 112.06 313.22 108.67 312.72 105.00 311.00
C 99.91 309.66 98.23 308.64 94.00 306.00
C 88.83 303.90 84.33 300.71 79.00 299.00
C 56.60 291.82 42.64 270.85 27.75 253.25 C 12.87 235.65 4.37 206.48 0.00 184.00
L 0.00 320.00 Z"/>
</g>
<g fill="None" fill-opacity="0.0" stroke="#FEFEFE" stroke-opacity="1.00" stroke-width="0.3"><path d="
M 301.00 236.00 
C 299.99 237.98 298.83 239.93 298.00 242.00
C 294.44 250.86 290.20 255.46 287.00 264.00
C 284.76 262.32 282.40 264.57 284.00 267.00
C 265.37 282.09 243.94 303.40 218.00 310.00
C 218.00 310.00 217.49 309.92 217.00 310.00
C 213.45 315.68 200.20 317.67 194.00 317.00
C 194.00 317.00 193.49 316.92 193.00 317.00
C 190.69 320.02 186.49 317.90 184.00 320.00
L 320.00 320.00
L 320.00 184.00
C 318.35 196.19 313.63 209.59 312.00 221.00
C 307.72 223.58 304.25 231.17 301.00 236.00 Z"/>
</g>
<g fill="None" fill-opacity="0.0" stroke="#D2F6FB" stroke-opacity="1.00" stroke-width="0.3"><path d="
M 218.00 310.00 
C 243.94 303.40 265.37 282.09 284.00 267.00
C 282.40 264.57 284.76 262.32 287.00 264.00
C 290.20 255.46 294.44 250.86 298.00 242.00
C 291.83 251.98 284.55 261.31 276.25 270.25 C 267.94 279.19 258.80 285.11 249.75 292.75 C 240.69 300.38 226.88 302.88 218.00 310.00 Z"/>
</g>
<g fill="None" fill-opacity="0.0" stroke="#C2F5FC" stroke-opacity="1.00" stroke-width="0.3"><path d="
M 105.00 311.00 
C 101.57 309.40 97.77 307.53 94.00 306.00
C 98.23 308.64 99.91 309.66 105.00 311.00 Z"/>
</g>
<g fill="None" fill-opacity="0.0" stroke="#C8F1F7" stroke-opacity="1.00" stroke-width="0.3"><path d="
M 194.00 317.00 
C 200.20 317.67 213.45 315.68 217.00 310.00
C 210.19 311.11 199.78 313.84 194.00 317.00 Z"/>
</g>
<g fill="None" fill-opacity="0.0" stroke="#B1EBF6" stroke-opacity="1.00" stroke-width="0.3"><path d="
M 136.00 320.00 
L 142.00 320.00
C 142.00 319.50 142.00 319.00 142.00 319.00
C 137.10 318.67 131.80 318.01 127.00 317.00
C 129.59 317.92 133.41 319.03 136.00 320.00 Z"/>
</g>
<g fill="None" fill-opacity="0.0" stroke="#B6F2FD" stroke-opacity="1.00" stroke-width="0.3"><path d="
M 174.00 320.00 
L 184.00 320.00
C 186.49 317.90 190.69 320.02 193.00 317.00
C 186.77 318.02 179.83 318.78 174.00 320.00 Z"/>
</g>
<g fill="None" fill-opacity="0.0" stroke="#4BC8EF" stroke-opacity="1.00" stroke-width="0.3"><path d="
M 142.00 320.00 
L 150.00 320.00
C 148.28 318.10 144.54 319.17 142.00 319.00
C 142.00 319.00 142.00 319.50 142.00 320.00 Z"/>
</g>
<g fill="#FEFEFE" fill-opacity="1.00" stroke="None">
<path d="
M 0.00 136.00 
C 1.04 127.30 6.09 118.06 4.00 109.00
C 16.24 92.20 21.16 67.76 40.00 54.00
C 40.24 53.68 40.00 53.00 40.00 53.00
C 43.39 46.07 53.20 39.43 59.00 35.00
C 59.32 34.76 60.00 35.00 60.00 35.00
C 62.75 31.07 69.50 28.94 68.00 24.00
C 76.11 24.47 81.32 17.63 89.03 15.03 C 96.73 12.42 105.36 6.35 114.00 6.00
C 114.44 5.84 115.00 6.00 115.00 6.00
C 119.49 1.61 126.98 3.08 132.00 0.00
L 0.00 0.00
L 0.00 136.00 Z"/>
</g>
<g fill="#C6F6FC" fill-opacity="1.00" stroke="None">
<path d="
M 115.00 6.00 
C 124.96 6.67 136.21 -0.37 146.00 0.00
L 132.00 0.00
C 126.98 3.08 119.49 1.61 115.00 6.00 Z"/>
</g>
<g fill="#06ACE7" fill-opacity="1.00" stroke="None">
<path d="
M 115.00 6.00 
C 115.00 6.00 114.44 5.84 114.00 6.00
C 110.48 10.60 100.10 10.47 94.78 13.78 C 89.46 17.08 82.00 20.24 76.30 23.30 C 70.61 26.37 65.76 32.18 60.00 35.00
C 60.00 35.00 59.32 34.76 59.00 35.00
C 54.81 40.99 46.09 48.74 40.00 53.00
C 40.00 53.00 40.24 53.68 40.00 54.00
C 19.04 81.44 2.39 111.41 0.00 146.00
L 0.00 174.00
C 5.19 223.04 34.06 273.95 79.00 299.00
C 84.33 300.71 88.83 303.90 94.00 306.00
C 97.77 307.53 101.57 309.40 105.00 311.00
C 108.67 312.72 112.06 313.22 116.00 314.00
C 117.94 314.07 121.31 312.89 124.00 314.00
C 104.81 291.62 79.51 269.83 62.00 250.00
C 56.10 244.82 55.42 241.01 57.99 232.99 C 60.56 224.97 58.85 217.81 61.00 210.00 C 63.15 202.19 63.74 197.63 58.25 191.75 C 52.76 185.88 58.44 176.52 62.25 172.25 C 66.06 167.98 65.88 158.25 68.00 152.00
C 65.87 154.11 55.96 142.82 53.25 139.75 C 50.54 136.68 40.06 127.72 39.00 126.00
C 30.67 112.46 58.71 110.41 69.02 106.02 C 79.34 101.64 97.62 96.35 109.69 91.69 C 121.76 87.04 137.15 83.20 150.07 78.07 C 163.00 72.95 178.56 80.74 191.69 85.31 C 204.83 89.87 218.69 94.27 232.02 98.98 C 245.36 103.68 259.62 108.12 273.00 113.00
C 283.32 114.32 288.54 124.34 296.75 132.25 C 304.96 140.16 311.57 147.72 320.00 155.00
L 320.00 146.00
C 318.11 129.71 313.28 111.12 307.03 95.98 C 300.77 80.83 292.09 69.46 282.25 56.75 C 272.40 44.04 261.29 36.79 249.25 26.75 C 237.22 16.70 218.24 14.31 206.00 6.00
C 205.57 6.17 204.49 6.07 204.00 6.00
C 201.36 5.64 198.60 4.72 196.00 4.00
C 194.93 3.70 194.08 3.32 193.00 3.00
C 186.98 1.19 179.52 2.29 174.00 0.00
L 146.00 0.00
C 136.21 -0.37 124.96 6.67 115.00 6.00 Z"/>
</g>
<g fill="#B8F7FC" fill-opacity="1.00" stroke="None">
<path d="
M 193.00 3.00 
C 190.18 1.47 186.88 0.94 184.00 0.00
L 174.00 0.00
C 179.52 2.29 186.98 1.19 193.00 3.00 Z"/>
</g>
<g fill="#FEFEFE" fill-opacity="1.00" stroke="None">
<path d="
M 193.00 3.00 
C 194.08 3.32 194.93 3.70 196.00 4.00
C 199.90 4.08 200.39 3.09 204.00 6.00
C 204.49 6.07 205.57 6.17 206.00 6.00
C 213.03 3.15 222.94 12.44 229.90 14.10 C 236.86 15.76 244.61 23.27 251.68 26.32 C 258.75 29.37 263.70 37.84 269.75 42.25 C 275.80 46.65 281.55 55.82 288.00 56.00
C 286.04 61.34 294.26 69.38 298.92 77.08 C 303.58 84.78 307.22 94.41 310.99 103.01 C 314.77 111.61 317.44 121.43 320.00 131.00
L 320.00 0.00
L 184.00 0.00
C 186.88 0.94 190.18 1.47 193.00 3.00 Z"/>
</g>
<g fill="#C7F6FD" fill-opacity="1.00" stroke="None">
<path d="
M 196.00 4.00 
C 198.60 4.72 201.36 5.64 204.00 6.00
C 200.39 3.09 199.90 4.08 196.00 4.00 Z"/>
</g>
<g fill="#D1F9FD" fill-opacity="1.00" stroke="None">
<path d="
M 206.00 6.00 
C 218.24 14.31 237.22 16.70 249.25 26.75 C 261.29 36.79 272.40 44.04 282.25 56.75 C 292.09 69.46 300.77 80.83 307.03 95.98 C 313.28 111.12 318.11 129.71 320.00 146.00
L 320.00 131.00
C 317.44 121.43 314.77 111.61 310.99 103.01 C 307.22 94.41 303.58 84.78 298.92 77.08 C 294.26 69.38 286.04 61.34 288.00 56.00
C 281.55 55.82 275.80 46.65 269.75 42.25 C 263.70 37.84 258.75 29.37 251.68 26.32 C 244.61 23.27 236.86 15.76 229.90 14.10 C 222.94 12.44 213.03 3.15 206.00 6.00 Z"/>
</g>
<g fill="#D0F9FE" fill-opacity="1.00" stroke="None">
<path d="
M 60.00 35.00 
C 65.76 32.18 70.61 26.37 76.30 23.30 C 82.00 20.24 89.46 17.08 94.78 13.78 C 100.10 10.47 110.48 10.60 114.00 6.00
C 105.36 6.35 96.73 12.42 89.03 15.03 C 81.32 17.63 76.11 24.47 68.00 24.00
C 69.50 28.94 62.75 31.07 60.00 35.00 Z"/>
</g>
<g fill="#C6FCFD" fill-opacity="1.00" stroke="None">
<path d="
M 40.00 53.00 
C 46.09 48.74 54.81 40.99 59.00 35.00
C 53.20 39.43 43.39 46.07 40.00 53.00 Z"/>
</g>
<g fill="#CBF7FC" fill-opacity="1.00" stroke="None">
<path d="
M 0.00 136.00 
L 0.00 146.00
C 2.39 111.41 19.04 81.44 40.00 54.00
C 21.16 67.76 16.24 92.20 4.00 109.00
C 6.09 118.06 1.04 127.30 0.00 136.00 Z"/>
</g>
<g fill="#CEF6FC" fill-opacity="1.00" stroke="None">
<path d="
M 39.00 126.00 
C 41.42 128.05 51.71 130.93 55.00 131.00
C 49.29 125.41 39.20 128.04 38.00 119.00
C 51.01 113.30 65.69 108.09 79.08 104.08 C 92.46 100.06 105.90 92.48 120.00 92.00
C 123.74 87.11 133.54 84.97 140.68 82.68 C 147.82 80.38 156.84 76.01 164.67 77.33 C 172.50 78.65 177.18 83.82 185.01 84.99 C 192.83 86.16 199.59 90.95 207.23 92.77 C 214.87 94.60 222.52 97.47 230.07 99.93 C 237.63 102.38 244.65 104.96 250.67 107.33 C 256.69 109.70 265.82 110.66 269.00 116.00
C 273.50 113.74 276.33 117.61 281.00 117.00
C 281.15 129.19 265.95 128.35 256.77 132.77 C 247.59 137.19 234.41 138.74 224.98 142.98 C 215.54 147.21 205.14 150.09 195.78 153.78 C 186.41 157.46 177.45 156.87 170.00 163.00
C 178.76 160.16 187.25 158.18 196.02 155.02 C 204.80 151.87 213.05 149.03 222.07 146.07 C 231.09 143.12 237.65 140.16 247.22 137.22 C 256.80 134.29 262.62 131.49 273.22 128.22 C 283.82 124.96 285.79 117.66 273.00 113.00
C 259.62 108.12 245.36 103.68 232.02 98.98 C 218.69 94.27 204.83 89.87 191.69 85.31 C 178.56 80.74 163.00 72.95 150.07 78.07 C 137.15 83.20 121.76 87.04 109.69 91.69 C 97.62 96.35 79.34 101.64 69.02 106.02 C 58.71 110.41 30.67 112.46 39.00 126.00 Z"/>
</g>
<g fill="#FEFEFE" fill-opacity="1.00" stroke="None">
<path d="
M 55.00 131.00 
C 55.50 131.01 56.00 131.00 56.00 131.00
C 62.44 130.51 68.50 136.04 75.00 136.00
C 75.11 138.23 74.21 141.07 72.00 142.00
C 71.24 143.78 70.53 145.15 70.00 147.00
C 66.65 158.79 66.54 167.99 60.08 178.08 C 53.61 188.16 69.32 197.85 63.07 209.07 C 56.82 220.29 62.02 234.93 59.00 247.00
C 65.35 249.28 73.38 250.09 80.00 248.00
C 80.38 247.78 81.00 248.00 81.00 248.00
C 87.63 240.50 76.92 231.25 79.22 222.78 C 81.53 214.30 70.90 202.16 77.26 194.26 C 83.62 186.36 83.10 180.73 77.00 172.00
C 76.60 171.80 76.00 172.00 76.00 172.00
C 72.41 168.53 75.61 156.22 77.33 152.33 C 79.04 148.44 83.25 139.46 89.00 141.00 C 94.76 142.55 100.59 145.40 106.03 146.97 C 111.47 148.54 117.21 151.97 123.02 152.98 C 128.84 153.98 134.21 158.34 140.22 158.78 C 146.23 159.22 152.15 164.62 157.00 166.00
C 162.29 166.60 165.73 164.38 170.00 163.00
C 177.45 156.87 186.41 157.46 195.78 153.78 C 205.14 150.09 215.54 147.21 224.98 142.98 C 234.41 138.74 247.59 137.19 256.77 132.77 C 265.95 128.35 281.15 129.19 281.00 117.00
C 276.33 117.61 273.50 113.74 269.00 116.00
C 265.82 110.66 256.69 109.70 250.67 107.33 C 244.65 104.96 237.63 102.38 230.07 99.93 C 222.52 97.47 214.87 94.60 207.23 92.77 C 199.59 90.95 192.83 86.16 185.01 84.99 C 177.18 83.82 172.50 78.65 164.67 77.33 C 156.84 76.01 147.82 80.38 140.68 82.68 C 133.54 84.97 123.74 87.11 120.00 92.00
C 105.90 92.48 92.46 100.06 79.08 104.08 C 65.69 108.09 51.01 113.30 38.00 119.00
C 39.20 128.04 49.29 125.41 55.00 131.00 Z"/>
</g>
<g fill="#0495CA" fill-opacity="1.00" stroke="None">
<path d="
M 273.00 113.00 
C 285.79 117.66 283.82 124.96 273.22 128.22 C 262.62 131.49 256.80 134.29 247.22 137.22 C 237.65 140.16 231.09 143.12 222.07 146.07 C 213.05 149.03 204.80 151.87 196.02 155.02 C 187.25 158.18 178.76 160.16 170.00 163.00
C 165.73 164.38 162.29 166.60 157.00 166.00
C 145.61 164.71 134.62 156.68 123.32 154.68 C 112.03 152.67 101.12 144.81 89.93 143.07 C 78.73 141.34 75.21 163.32 76.00 172.00
C 76.00 172.00 76.60 171.80 77.00 172.00
C 86.48 176.64 86.30 191.35 77.00 196.00
C 78.61 204.36 80.55 214.51 81.00 223.00 C 81.45 231.49 87.12 241.48 81.00 248.00
C 81.00 248.00 80.38 247.78 80.00 248.00
C 76.64 252.38 66.86 251.73 62.00 250.00
C 79.51 269.83 104.81 291.62 124.00 314.00
C 121.31 312.89 117.94 314.07 116.00 314.00
C 119.68 314.72 123.44 315.74 127.00 317.00
C 131.80 318.01 137.10 318.67 142.00 319.00
C 144.54 319.17 148.28 318.10 150.00 320.00
L 174.00 320.00
C 179.83 318.78 186.77 318.02 193.00 317.00
C 193.49 316.92 194.00 317.00 194.00 317.00
C 199.78 313.84 210.19 311.11 217.00 310.00
C 217.49 309.92 218.00 310.00 218.00 310.00
C 226.88 302.88 240.69 300.38 249.75 292.75 C 258.80 285.11 267.94 279.19 276.25 270.25 C 284.55 261.31 291.83 251.98 298.00 242.00
C 298.83 239.93 299.99 237.98 301.00 236.00
C 310.98 216.47 317.67 195.53 320.00 174.00
L 320.00 155.00
C 311.57 147.72 304.96 140.16 296.75 132.25 C 288.54 124.34 283.32 114.32 273.00 113.00
M 156.00 173.00 
C 158.34 173.31 161.67 173.36 164.00 173.00
C 185.26 166.98 205.64 157.77 227.00 152.00
C 225.48 166.91 235.72 191.70 223.25 203.25 C 210.78 214.79 194.53 215.12 179.00 218.00
C 178.00 217.97 177.00 218.00 176.00 218.00
C 151.61 223.35 132.10 217.23 108.77 210.23 C 85.44 203.22 89.71 171.91 93.00 152.00
C 114.21 158.19 134.92 166.25 156.00 173.00 Z"/>
</g>
<g fill="#1194C7" fill-opacity="1.00" stroke="None">
<path d="
M 68.00 152.00 
C 68.63 150.14 69.27 148.60 70.00 147.00
C 70.53 145.15 71.24 143.78 72.00 142.00
C 72.59 140.60 73.44 139.40 74.00 138.00
C 68.35 134.81 61.18 134.46 56.00 131.00
C 56.00 131.00 55.50 131.01 55.00 131.00
C 51.71 130.93 41.42 128.05 39.00 126.00
C 40.06 127.72 50.54 136.68 53.25 139.75 C 55.96 142.82 65.87 154.11 68.00 152.00 Z"/>
</g>
<g fill="#BFEDF7" fill-opacity="1.00" stroke="None">
<path d="
M 72.00 142.00 
C 74.21 141.07 75.11 138.23 75.00 136.00
C 68.50 136.04 62.44 130.51 56.00 131.00
C 61.18 134.46 68.35 134.81 74.00 138.00
C 73.44 139.40 72.59 140.60 72.00 142.00 Z"/>
</g>
<g fill="#CFF5FB" fill-opacity="1.00" stroke="None">
<path d="
M 76.00 172.00 
C 75.21 163.32 78.73 141.34 89.93 143.07 C 101.12 144.81 112.03 152.67 123.32 154.68 C 134.62 156.68 145.61 164.71 157.00 166.00
C 152.15 164.62 146.23 159.22 140.22 158.78 C 134.21 158.34 128.84 153.98 123.02 152.98 C 117.21 151.97 111.47 148.54 106.03 146.97 C 100.59 145.40 94.76 142.55 89.00 141.00 C 83.25 139.46 79.04 148.44 77.33 152.33 C 75.61 156.22 72.41 168.53 76.00 172.00 Z"/>
</g>
<g fill="#CAF6FC" fill-opacity="1.00" stroke="None">
<path d="
M 68.00 152.00 
C 65.88 158.25 66.06 167.98 62.25 172.25 C 58.44 176.52 52.76 185.88 58.25 191.75 C 63.74 197.63 63.15 202.19 61.00 210.00 C 58.85 217.81 60.56 224.97 57.99 232.99 C 55.42 241.01 56.10 244.82 62.00 250.00
C 66.86 251.73 76.64 252.38 80.00 248.00
C 73.38 250.09 65.35 249.28 59.00 247.00
C 62.02 234.93 56.82 220.29 63.07 209.07 C 69.32 197.85 53.61 188.16 60.08 178.08 C 66.54 167.99 66.65 158.79 70.00 147.00
C 69.27 148.60 68.63 150.14 68.00 152.00 Z"/>
</g>
<g fill="#CFF5FA" fill-opacity="1.00" stroke="None">
<path d="
M 176.00 218.00 
C 163.26 218.00 146.67 218.87 134.98 216.02 C 123.28 213.18 110.43 213.63 104.00 204.00
C 96.37 204.64 91.33 196.42 92.07 187.93 C 92.81 179.43 93.00 169.57 94.21 160.77 C 95.43 151.97 105.01 158.18 111.25 159.20 C 117.49 160.22 126.72 165.83 134.01 166.99 C 141.30 168.15 148.25 174.52 156.22 174.78 C 164.20 175.03 172.79 172.68 180.07 170.07 C 187.36 167.47 195.17 163.82 202.74 161.74 C 210.32 159.66 217.43 155.00 225.00 155.00
C 225.66 169.09 233.51 192.31 220.92 202.92 C 208.32 213.53 193.52 212.22 179.00 218.00
C 194.53 215.12 210.78 214.79 223.25 203.25 C 235.72 191.70 225.48 166.91 227.00 152.00
C 205.64 157.77 185.26 166.98 164.00 173.00
C 160.95 173.86 158.98 173.77 156.00 173.00
C 134.92 166.25 114.21 158.19 93.00 152.00
C 89.71 171.91 85.44 203.22 108.77 210.23 C 132.10 217.23 151.61 223.35 176.00 218.00 Z"/>
</g>
<g fill="#FEFEFE" fill-opacity="1.00" stroke="None">
<path d="
M 176.00 218.00 
C 177.00 218.00 178.00 217.97 179.00 218.00
C 193.52 212.22 208.32 213.53 220.92 202.92 C 233.51 192.31 225.66 169.09 225.00 155.00
C 217.43 155.00 210.32 159.66 202.74 161.74 C 195.17 163.82 187.36 167.47 180.07 170.07 C 172.79 172.68 164.20 175.03 156.22 174.78 C 148.25 174.52 141.30 168.15 134.01 166.99 C 126.72 165.83 117.49 160.22 111.25 159.20 C 105.01 158.18 95.43 151.97 94.21 160.77 C 93.00 169.57 92.81 179.43 92.07 187.93 C 91.33 196.42 96.37 204.64 104.00 204.00
C 110.43 213.63 123.28 213.18 134.98 216.02 C 146.67 218.87 163.26 218.00 176.00 218.00 Z"/>
</g>
<g fill="#CDF4FB" fill-opacity="1.00" stroke="None">
<path d="
M 81.00 248.00 
C 87.12 241.48 81.45 231.49 81.00 223.00 C 80.55 214.51 78.61 204.36 77.00 196.00
C 86.30 191.35 86.48 176.64 77.00 172.00
C 83.10 180.73 83.62 186.36 77.26 194.26 C 70.90 202.16 81.53 214.30 79.22 222.78 C 76.92 231.25 87.63 240.50 81.00 248.00 Z"/>
</g>
<g fill="#67BBDA" fill-opacity="1.00" stroke="None">
<path d="
M 164.00 173.00 
C 161.67 173.36 158.34 173.31 156.00 173.00
C 158.98 173.77 160.95 173.86 164.00 173.00 Z"/>
</g>
<g fill="#D0FAFD" fill-opacity="1.00" stroke="None">
<path d="
M 0.00 184.00 
C 4.37 206.48 12.87 235.65 27.75 253.25 C 42.64 270.85 56.60 291.82 79.00 299.00
C 34.06 273.95 5.19 223.04 0.00 174.00
L 0.00 184.00 Z"/>
</g>
<g fill="#C6F2FA" fill-opacity="1.00" stroke="None">
<path d="
M 301.00 236.00 
C 304.25 231.17 307.72 223.58 312.00 221.00
C 313.63 209.59 318.35 196.19 320.00 184.00
L 320.00 174.00
C 317.67 195.53 310.98 216.47 301.00 236.00 Z"/>
</g>
<g fill="#FDFEFE" fill-opacity="1.00" stroke="None">
<path d="
M 0.00 320.00 
L 136.00 320.00
C 133.41 319.03 129.59 317.92 127.00 317.00
C 123.44 315.74 119.68 314.72 116.00 314.00
C 112.06 313.22 108.67 312.72 105.00 311.00
C 99.91 309.66 98.23 308.64 94.00 306.00
C 88.83 303.90 84.33 300.71 79.00 299.00
C 56.60 291.82 42.64 270.85 27.75 253.25 C 12.87 235.65 4.37 206.48 0.00 184.00
L 0.00 320.00 Z"/>
</g>
<g fill="#FEFEFE" fill-opacity="1.00" stroke="None">
<path d="
M 301.00 236.00 
C 299.99 237.98 298.83 239.93 298.00 242.00
C 294.44 250.86 290.20 255.46 287.00 264.00
C 284.76 262.32 282.40 264.57 284.00 267.00
C 265.37 282.09 243.94 303.40 218.00 310.00
C 218.00 310.00 217.49 309.92 217.00 310.00
C 213.45 315.68 200.20 317.67 194.00 317.00
C 194.00 317.00 193.49 316.92 193.00 317.00
C 190.69 320.02 186.49 317.90 184.00 320.00
L 320.00 320.00
L 320.00 184.00
C 318.35 196.19 313.63 209.59 312.00 221.00
C 307.72 223.58 304.25 231.17 301.00 236.00 Z"/>
</g>
<g fill="#D2F6FB" fill-opacity="1.00" stroke="None">
<path d="
M 218.00 310.00 
C 243.94 303.40 265.37 282.09 284.00 267.00
C 282.40 264.57 284.76 262.32 287.00 264.00
C 290.20 255.46 294.44 250.86 298.00 242.00
C 291.83 251.98 284.55 261.31 276.25 270.25 C 267.94 279.19 258.80 285.11 249.75 292.75 C 240.69 300.38 226.88 302.88 218.00 310.00 Z"/>
</g>
<g fill="#C2F5FC" fill-opacity="1.00" stroke="None">
<path d="
M 105.00 311.00 
C 101.57 309.40 97.77 307.53 94.00 306.00
C 98.23 308.64 99.91 309.66 105.00 311.00 Z"/>
</g>
<g fill="#C8F1F7" fill-opacity="1.00" stroke="None">
<path d="
M 194.00 317.00 
C 200.20 317.67 213.45 315.68 217.00 310.00
C 210.19 311.11 199.78 313.84 194.00 317.00 Z"/>
</g>
<g fill="#B1EBF6" fill-opacity="1.00" stroke="None">
<path d="
M 136.00 320.00 
L 142.00 320.00
C 142.00 319.50 142.00 319.00 142.00 319.00
C 137.10 318.67 131.80 318.01 127.00 317.00
C 129.59 317.92 133.41 319.03 136.00 320.00 Z"/>
</g>
<g fill="#B6F2FD" fill-opacity="1.00" stroke="None">
<path d="
M 174.00 320.00 
L 184.00 320.00
C 186.49 317.90 190.69 320.02 193.00 317.00
C 186.77 318.02 179.83 318.78 174.00 320.00 Z"/>
</g>
<g fill="#4BC8EF" fill-opacity="1.00" stroke="None">
<path d="
M 142.00 320.00 
L 150.00 320.00
C 148.28 318.10 144.54 319.17 142.00 319.00
C 142.00 319.00 142.00 319.50 142.00 320.00 Z"/>
</g>
</svg>